<mxfile host="65bd71144e">
    <diagram name="Page-1" id="tuon_g_4rtUmrCNSt_cw">
        <mxGraphModel dx="1695" dy="1028" grid="1" gridSize="10" guides="1" tooltips="1" connect="1" arrows="1" fold="1" page="1" pageScale="1" pageWidth="3000" pageHeight="3000" background="none" math="0" shadow="0">
            <root>
                <mxCell id="0"/>
                <mxCell id="1" parent="0"/>
                <mxCell id="572" value="DisasterVictim" style="swimlane;fontStyle=1;align=center;verticalAlign=top;childLayout=stackLayout;horizontal=1;startSize=26;horizontalStack=0;resizeParent=1;resizeParentMax=0;resizeLast=0;collapsible=1;marginBottom=0;whiteSpace=wrap;html=1;labelBackgroundColor=default;" vertex="1" parent="1">
                    <mxGeometry x="1080" y="760" width="430" height="660" as="geometry"/>
                </mxCell>
                <mxCell id="573" value="&lt;div&gt;- firstName: String&lt;/div&gt;&lt;div&gt;- lastName: String&lt;/div&gt;&lt;div&gt;- dateOfBirth: String&lt;/div&gt;&lt;div&gt;- comments: String&lt;/div&gt;&lt;div&gt;- ASSIGNED_SOCIAL_ID: int&lt;/div&gt;&lt;div&gt;- medicalRecords:&amp;nbsp;&lt;span style=&quot;&quot;&gt;ArrayList&amp;lt;&lt;/span&gt;&lt;span style=&quot;&quot;&gt;MedicalRecord&amp;gt;&lt;/span&gt;&lt;/div&gt;&lt;div&gt;- familyConnections:&amp;nbsp;&lt;span style=&quot;&quot;&gt;ArrayList&amp;lt;&lt;/span&gt;&lt;span style=&quot;&quot;&gt;FamilyRelation&amp;gt;&lt;/span&gt;&lt;/div&gt;&lt;div&gt;- ENTRY_DATE: String&lt;/div&gt;&lt;div&gt;- personalBelongings:&amp;nbsp;&lt;span style=&quot;&quot;&gt;ArrayList&amp;lt;&lt;/span&gt;&lt;span style=&quot;&quot;&gt;Supply&amp;gt;&lt;/span&gt;&lt;/div&gt;&lt;div&gt;- gender: String&lt;/div&gt;&lt;div&gt;- &lt;u&gt;counter&lt;/u&gt;: int&lt;/div&gt;&lt;div&gt;- approximateAge: int&lt;/div&gt;&lt;div&gt;- dietary Restrictions: ArrayList&amp;lt;DietaryRestriction&amp;gt;&lt;/div&gt;" style="text;strokeColor=none;fillColor=none;align=left;verticalAlign=top;spacingLeft=4;spacingRight=4;overflow=hidden;rotatable=0;points=[[0,0.5],[1,0.5]];portConstraint=eastwest;whiteSpace=wrap;html=1;labelBackgroundColor=default;" vertex="1" parent="572">
                    <mxGeometry y="26" width="430" height="194" as="geometry"/>
                </mxCell>
                <mxCell id="574" value="" style="line;strokeWidth=1;fillColor=none;align=left;verticalAlign=middle;spacingTop=-1;spacingLeft=3;spacingRight=3;rotatable=0;labelPosition=right;points=[];portConstraint=eastwest;strokeColor=inherit;labelBackgroundColor=default;" vertex="1" parent="572">
                    <mxGeometry y="220" width="430" height="8" as="geometry"/>
                </mxCell>
                <mxCell id="575" value="&lt;div&gt;+ DisasterVictim(firstName: String, ENTRY_DATE: String)&lt;/div&gt;&lt;div&gt;+ getFirstName(): String&lt;/div&gt;&lt;div&gt;+ getLastName(): String&lt;/div&gt;&lt;div&gt;+ getDateOfBirth(): String&lt;/div&gt;&lt;div&gt;+ getComments(): String&lt;/div&gt;&lt;div&gt;+ getMedicalRecords():&amp;nbsp;&lt;span style=&quot;&quot;&gt;ArrayList&amp;lt;&lt;/span&gt;&lt;span style=&quot;&quot;&gt;MedicalRecord&amp;gt;&lt;/span&gt;&lt;/div&gt;&lt;div&gt;+ getEntryDate(): String&lt;/div&gt;&lt;div&gt;+ getAssignedSocialID(): int&lt;/div&gt;&lt;div&gt;+ getPersonalBelongings:&amp;nbsp;&lt;span style=&quot;&quot;&gt;ArrayList&amp;lt;&lt;/span&gt;&lt;span style=&quot;&quot;&gt;Supply&amp;gt;&lt;/span&gt;&lt;/div&gt;&lt;div&gt;+ getFamilyConnections:&amp;nbsp;&lt;span style=&quot;&quot;&gt;ArrayList&amp;lt;&lt;/span&gt;&lt;span style=&quot;&quot;&gt;FamilyRelation&amp;gt;&lt;/span&gt;&lt;/div&gt;&lt;div&gt;+ getGender(): String&lt;/div&gt;&lt;div&gt;+ getApproximateAge(): int&lt;/div&gt;&lt;div&gt;+ setFirstName(firstName:String)&lt;/div&gt;&lt;div&gt;+ setLastName(lastName: String): void&lt;/div&gt;&lt;div&gt;+ setDateOfBirth(dateOfBirth: String): void&lt;/div&gt;&lt;div&gt;+ setComments(comments: String): void&lt;/div&gt;&lt;div&gt;+ setMedicalRecords(medicalRecords:&amp;nbsp;&lt;span style=&quot;&quot;&gt;ArrayList&amp;lt;&lt;/span&gt;&lt;span style=&quot;&quot;&gt;MedicalRecord&amp;gt;): void&lt;/span&gt;&lt;/div&gt;&lt;div&gt;+ setPersonalBelongings(supplies:&amp;nbsp;&lt;span style=&quot;&quot;&gt;ArrayList&amp;lt;&lt;/span&gt;&lt;span style=&quot;&quot;&gt;Supply&amp;gt;)&lt;/span&gt;&lt;/div&gt;&lt;div&gt;+ setFamilyConnections(relation:&amp;nbsp;&lt;span style=&quot;&quot;&gt;ArrayList&amp;lt;&lt;/span&gt;&lt;span style=&quot;&quot;&gt;FamilyRelation&amp;gt;):void&lt;/span&gt;&lt;/div&gt;&lt;div&gt;+ setGender(gender: String): void&lt;/div&gt;&lt;div&gt;+ setApproximateAge(approximateAge: int): void&lt;/div&gt;&lt;div&gt;+ &lt;u&gt;generateSocialID(): int&lt;/u&gt;&lt;/div&gt;&lt;div&gt;+ addPersonalBelonging(supply: Supply) :void&lt;/div&gt;&lt;div&gt;+ removePersonalBelonging(supply: Supply) :void&lt;/div&gt;&lt;div&gt;+ addFamilyConnection(familyConnection: FamilyRelation): void&lt;/div&gt;&lt;div&gt;+ removeFamilyConnection(familyConnection: FamilyRelation): void&lt;/div&gt;&lt;div&gt;+ addMedicalRecord(medicalRecord:MedicalRecord):void&lt;/div&gt;&lt;div&gt;+ addDietaryRestriction(restriction: DietaryRestriction):void&lt;/div&gt;&lt;div&gt;+removeDietaryRestriction(restriction: DietaryRestriction): void&lt;/div&gt;" style="text;strokeColor=none;fillColor=none;align=left;verticalAlign=top;spacingLeft=4;spacingRight=4;overflow=hidden;rotatable=0;points=[[0,0.5],[1,0.5]];portConstraint=eastwest;whiteSpace=wrap;html=1;labelBackgroundColor=default;" vertex="1" parent="572">
                    <mxGeometry y="228" width="430" height="432" as="geometry"/>
                </mxCell>
                <mxCell id="576" value="" style="endArrow=none;html=1;rounded=0;entryX=-0.002;entryY=0.835;entryDx=0;entryDy=0;entryPerimeter=0;exitX=0.128;exitY=1.005;exitDx=0;exitDy=0;exitPerimeter=0;labelBackgroundColor=default;" edge="1" parent="572" source="575" target="575">
                    <mxGeometry width="50" height="50" relative="1" as="geometry">
                        <mxPoint x="60" y="660" as="sourcePoint"/>
                        <mxPoint x="1.2899999999999636" y="654.1839999999997" as="targetPoint"/>
                        <Array as="points">
                            <mxPoint x="53" y="673"/>
                            <mxPoint x="-20" y="673"/>
                            <mxPoint x="-110" y="673"/>
                            <mxPoint x="-110" y="590"/>
                        </Array>
                    </mxGeometry>
                </mxCell>
                <mxCell id="577" value="Location" style="swimlane;fontStyle=1;align=center;verticalAlign=top;childLayout=stackLayout;horizontal=1;startSize=26;horizontalStack=0;resizeParent=1;resizeParentMax=0;resizeLast=0;collapsible=1;marginBottom=0;whiteSpace=wrap;html=1;labelBackgroundColor=default;" vertex="1" parent="1">
                    <mxGeometry x="680" y="760" width="260" height="340" as="geometry"/>
                </mxCell>
                <mxCell id="578" value="&lt;div&gt;- name: String&lt;/div&gt;&lt;div&gt;- address: String&lt;/div&gt;&lt;div&gt;- occupants: ArrayList&amp;lt;DisasterVictim&amp;gt;&lt;/div&gt;&lt;div&gt;- supplies:&amp;nbsp;&lt;span style=&quot;&quot;&gt;ArrayList&amp;lt;&lt;/span&gt;&lt;span style=&quot;&quot;&gt;Supply&amp;gt;&lt;/span&gt;&lt;/div&gt;" style="text;strokeColor=none;fillColor=none;align=left;verticalAlign=top;spacingLeft=4;spacingRight=4;overflow=hidden;rotatable=0;points=[[0,0.5],[1,0.5]];portConstraint=eastwest;whiteSpace=wrap;html=1;labelBackgroundColor=default;" vertex="1" parent="577">
                    <mxGeometry y="26" width="260" height="64" as="geometry"/>
                </mxCell>
                <mxCell id="579" value="" style="line;strokeWidth=1;fillColor=none;align=left;verticalAlign=middle;spacingTop=-1;spacingLeft=3;spacingRight=3;rotatable=0;labelPosition=right;points=[];portConstraint=eastwest;strokeColor=inherit;labelBackgroundColor=default;" vertex="1" parent="577">
                    <mxGeometry y="90" width="260" height="8" as="geometry"/>
                </mxCell>
                <mxCell id="580" value="&lt;div&gt;+ Location(name:String, address:String)&lt;/div&gt;&lt;div&gt;+ getName(): String&lt;/div&gt;&lt;div&gt;+ setName(name: String)&lt;/div&gt;&lt;div&gt;+ getAddress(): String&lt;/div&gt;&lt;div&gt;+ setAddress(address: String)&lt;/div&gt;&lt;div&gt;+ getOccupants():&amp;nbsp;&lt;span style=&quot;&quot;&gt;ArrayList&amp;lt;&lt;/span&gt;&lt;span style=&quot;&quot;&gt;DisasterVictim&amp;gt;&lt;/span&gt;&lt;/div&gt;&lt;div&gt;+ setOccupants(occupants:&amp;nbsp;&lt;/div&gt;&lt;div&gt;&lt;span style=&quot;&quot;&gt;ArrayList&amp;lt;&lt;/span&gt;&lt;span style=&quot;&quot;&gt;DisasterVictim&amp;gt;)&lt;/span&gt;&lt;/div&gt;&lt;div&gt;+ getSupplies():&amp;nbsp;&lt;span style=&quot;&quot;&gt;ArrayList&amp;lt;&lt;/span&gt;&lt;span style=&quot;&quot;&gt;Supply&amp;gt;&lt;/span&gt;&lt;/div&gt;&lt;div&gt;+ setSupplies(supplies:&amp;nbsp;&lt;span style=&quot;&quot;&gt;ArrayList&amp;lt;&lt;/span&gt;&lt;span style=&quot;&quot;&gt;Supply&amp;gt;)&lt;/span&gt;&lt;/div&gt;&lt;div&gt;+ addOccupant(occupant:DisasterVictim)&lt;/div&gt;&lt;div&gt;+ removeOccupant(occupant: DisasterVictim)&lt;/div&gt;&lt;div&gt;+ addSupply(supply: Supply)&lt;/div&gt;&lt;div&gt;+ removeSupply(supply:Supply)&lt;/div&gt;&lt;div&gt;+ alloccateSupplyToVictim(supply: Supply, victim: DisasterVictim): void&lt;/div&gt;" style="text;strokeColor=none;fillColor=none;align=left;verticalAlign=top;spacingLeft=4;spacingRight=4;overflow=hidden;rotatable=0;points=[[0,0.5],[1,0.5]];portConstraint=eastwest;whiteSpace=wrap;html=1;labelBackgroundColor=default;" vertex="1" parent="577">
                    <mxGeometry y="98" width="260" height="242" as="geometry"/>
                </mxCell>
                <mxCell id="581" value="" style="endArrow=diamondThin;endFill=0;endSize=24;html=1;rounded=0;entryX=1.001;entryY=0.807;entryDx=0;entryDy=0;exitX=0.5;exitY=0;exitDx=0;exitDy=0;entryPerimeter=0;labelBackgroundColor=default;" edge="1" parent="1" source="572" target="578">
                    <mxGeometry width="160" relative="1" as="geometry">
                        <mxPoint x="1050" y="838" as="sourcePoint"/>
                        <mxPoint x="980" y="920" as="targetPoint"/>
                        <Array as="points">
                            <mxPoint x="1295" y="690"/>
                            <mxPoint x="1030" y="690"/>
                            <mxPoint x="1030" y="838"/>
                        </Array>
                    </mxGeometry>
                </mxCell>
                <mxCell id="582" value="0..*" style="text;html=1;align=center;verticalAlign=middle;resizable=0;points=[];autosize=1;strokeColor=none;fillColor=none;labelBackgroundColor=default;" vertex="1" parent="1">
                    <mxGeometry x="1290" y="748" width="40" height="30" as="geometry"/>
                </mxCell>
                <mxCell id="583" value="1" style="text;html=1;align=center;verticalAlign=middle;resizable=0;points=[];autosize=1;strokeColor=none;fillColor=none;labelBackgroundColor=default;" vertex="1" parent="1">
                    <mxGeometry x="960" y="810" width="30" height="30" as="geometry"/>
                </mxCell>
                <mxCell id="584" value="FamilyRelation" style="swimlane;fontStyle=1;align=center;verticalAlign=top;childLayout=stackLayout;horizontal=1;startSize=26;horizontalStack=0;resizeParent=1;resizeParentMax=0;resizeLast=0;collapsible=1;marginBottom=0;whiteSpace=wrap;html=1;labelBackgroundColor=default;" vertex="1" parent="1">
                    <mxGeometry x="1155" y="1470" width="335" height="298" as="geometry"/>
                </mxCell>
                <mxCell id="585" value="&lt;div&gt;- personOne: DisasterVictim&lt;/div&gt;&lt;div&gt;- relationshipTo: String&lt;/div&gt;&lt;div&gt;- personTwo: DisasterVictim&lt;/div&gt;&lt;div&gt;- &lt;u&gt;existingRelationships&lt;/u&gt;:Set&amp;lt;FamilyRelation&amp;gt;&lt;/div&gt;" style="text;strokeColor=none;fillColor=none;align=left;verticalAlign=top;spacingLeft=4;spacingRight=4;overflow=hidden;rotatable=0;points=[[0,0.5],[1,0.5]];portConstraint=eastwest;whiteSpace=wrap;html=1;labelBackgroundColor=default;" vertex="1" parent="584">
                    <mxGeometry y="26" width="335" height="64" as="geometry"/>
                </mxCell>
                <mxCell id="586" value="" style="line;strokeWidth=1;fillColor=none;align=left;verticalAlign=middle;spacingTop=-1;spacingLeft=3;spacingRight=3;rotatable=0;labelPosition=right;points=[];portConstraint=eastwest;strokeColor=inherit;labelBackgroundColor=default;" vertex="1" parent="584">
                    <mxGeometry y="90" width="335" height="8" as="geometry"/>
                </mxCell>
                <mxCell id="587" value="&lt;div&gt;+ FamilyRelation(personOne: DisasterVictim,&lt;/div&gt;&lt;div&gt;relationshipTo: String, personTwo: DisasterVictim)&lt;/div&gt;&lt;div&gt;+ getPersonOne(): DisasterVictim&lt;/div&gt;&lt;div&gt;+ setPersonOne(personOne: DisasterVictim): void&lt;/div&gt;&lt;div&gt;+ getRelationshipTo(): String&lt;/div&gt;&lt;div&gt;+ setRelationshipTo(relationshipTo: String): void&lt;/div&gt;&lt;div&gt;+ getPersonTwo(): DisasterVictim&lt;/div&gt;&lt;div&gt;+ setPersonTwo(personTwo: DisasterVictim): void&lt;/div&gt;&lt;div&gt;+ &lt;u&gt;addRelationship&lt;/u&gt;&lt;span style=&quot;&quot;&gt;(personOne: DisasterVictim,&lt;/span&gt;&lt;/div&gt;&lt;div&gt;relationshipTo: String, personTwo: DisasterVictim): boolean&lt;/div&gt;&lt;div&gt;+ isValidRelationship(): boolean&lt;/div&gt;&lt;div&gt;+ isDuplicate(): boolean&lt;/div&gt;" style="text;strokeColor=none;fillColor=none;align=left;verticalAlign=top;spacingLeft=4;spacingRight=4;overflow=hidden;rotatable=0;points=[[0,0.5],[1,0.5]];portConstraint=eastwest;whiteSpace=wrap;html=1;labelBackgroundColor=default;" vertex="1" parent="584">
                    <mxGeometry y="98" width="335" height="200" as="geometry"/>
                </mxCell>
                <mxCell id="588" value="1" style="text;html=1;align=center;verticalAlign=middle;resizable=0;points=[];autosize=1;strokeColor=none;fillColor=none;labelBackgroundColor=default;" vertex="1" parent="1">
                    <mxGeometry x="1040" y="1318" width="30" height="30" as="geometry"/>
                </mxCell>
                <mxCell id="589" value="1" style="text;html=1;align=center;verticalAlign=middle;resizable=0;points=[];autosize=1;strokeColor=none;fillColor=none;labelBackgroundColor=default;" vertex="1" parent="1">
                    <mxGeometry x="1030" y="1408" width="30" height="30" as="geometry"/>
                </mxCell>
                <mxCell id="590" value="&lt;span style=&quot;font-weight: 700; text-wrap: wrap;&quot;&gt;&lt;font style=&quot;font-size: 11px;&quot;&gt;FamilyRelationship&lt;/font&gt;&lt;/span&gt;" style="text;html=1;align=center;verticalAlign=middle;resizable=0;points=[];autosize=1;strokeColor=none;fillColor=none;labelBackgroundColor=default;" vertex="1" parent="1">
                    <mxGeometry x="960" y="1370" width="120" height="30" as="geometry"/>
                </mxCell>
                <mxCell id="591" value="" style="endArrow=none;dashed=1;html=1;rounded=0;exitX=0.022;exitY=1.003;exitDx=0;exitDy=0;exitPerimeter=0;labelBackgroundColor=default;" edge="1" parent="1" source="575">
                    <mxGeometry width="50" height="50" relative="1" as="geometry">
                        <mxPoint x="1070" y="1460" as="sourcePoint"/>
                        <mxPoint x="1155" y="1613" as="targetPoint"/>
                        <Array as="points">
                            <mxPoint x="1090" y="1610"/>
                        </Array>
                    </mxGeometry>
                </mxCell>
                <mxCell id="592" value="0..*" style="text;html=1;align=center;verticalAlign=middle;resizable=0;points=[];autosize=1;strokeColor=none;fillColor=none;labelBackgroundColor=default;" vertex="1" parent="1">
                    <mxGeometry x="1110" y="1578" width="40" height="30" as="geometry"/>
                </mxCell>
                <mxCell id="593" value="2" style="text;html=1;align=center;verticalAlign=middle;resizable=0;points=[];autosize=1;strokeColor=none;fillColor=none;labelBackgroundColor=default;" vertex="1" parent="1">
                    <mxGeometry x="1090" y="1458" width="30" height="30" as="geometry"/>
                </mxCell>
                <mxCell id="594" value="Supply" style="swimlane;fontStyle=1;align=center;verticalAlign=top;childLayout=stackLayout;horizontal=1;startSize=26;horizontalStack=0;resizeParent=1;resizeParentMax=0;resizeLast=0;collapsible=1;marginBottom=0;whiteSpace=wrap;html=1;labelBackgroundColor=default;" vertex="1" parent="1">
                    <mxGeometry x="360" y="770" width="200" height="178" as="geometry"/>
                </mxCell>
                <mxCell id="595" value="&lt;div&gt;- type: String&lt;/div&gt;&lt;div&gt;- quantity: int&lt;/div&gt;" style="text;strokeColor=none;fillColor=none;align=left;verticalAlign=top;spacingLeft=4;spacingRight=4;overflow=hidden;rotatable=0;points=[[0,0.5],[1,0.5]];portConstraint=eastwest;whiteSpace=wrap;html=1;labelBackgroundColor=default;" vertex="1" parent="594">
                    <mxGeometry y="26" width="200" height="44" as="geometry"/>
                </mxCell>
                <mxCell id="596" value="" style="line;strokeWidth=1;fillColor=none;align=left;verticalAlign=middle;spacingTop=-1;spacingLeft=3;spacingRight=3;rotatable=0;labelPosition=right;points=[];portConstraint=eastwest;strokeColor=inherit;labelBackgroundColor=default;" vertex="1" parent="594">
                    <mxGeometry y="70" width="200" height="8" as="geometry"/>
                </mxCell>
                <mxCell id="597" value="&lt;div&gt;+ Supply(type: String, quantity: int)&lt;/div&gt;&lt;div&gt;+ getType(): String&lt;/div&gt;&lt;div&gt;+ setType(type: string): void&lt;/div&gt;&lt;div&gt;+ getQuantity(): int&lt;/div&gt;&lt;div&gt;+ setQuantity(quantity: int): void&lt;/div&gt;" style="text;strokeColor=none;fillColor=none;align=left;verticalAlign=top;spacingLeft=4;spacingRight=4;overflow=hidden;rotatable=0;points=[[0,0.5],[1,0.5]];portConstraint=eastwest;whiteSpace=wrap;html=1;labelBackgroundColor=default;" vertex="1" parent="594">
                    <mxGeometry y="78" width="200" height="100" as="geometry"/>
                </mxCell>
                <mxCell id="598" value="&amp;lt;&amp;lt;use&amp;gt;&amp;gt;" style="endArrow=open;endSize=12;dashed=1;html=1;rounded=0;exitX=-0.014;exitY=0.026;exitDx=0;exitDy=0;exitPerimeter=0;labelBackgroundColor=default;" edge="1" parent="1" source="580">
                    <mxGeometry width="160" relative="1" as="geometry">
                        <mxPoint x="550" y="980" as="sourcePoint"/>
                        <mxPoint x="560" y="866" as="targetPoint"/>
                    </mxGeometry>
                </mxCell>
                <mxCell id="599" value="ReliefService" style="swimlane;fontStyle=1;align=center;verticalAlign=top;childLayout=stackLayout;horizontal=1;startSize=26;horizontalStack=0;resizeParent=1;resizeParentMax=0;resizeLast=0;collapsible=1;marginBottom=0;whiteSpace=wrap;html=1;labelBackgroundColor=default;" vertex="1" parent="1">
                    <mxGeometry x="1840" y="1085" width="280" height="390" as="geometry"/>
                </mxCell>
                <mxCell id="600" value="&lt;div&gt;- inquirer: Inquirer&lt;/div&gt;&lt;div&gt;- missingPerson: DisasterVictim&lt;/div&gt;&lt;div&gt;- dateOfInquiry: String&lt;/div&gt;&lt;div&gt;- infoProvided: String&lt;/div&gt;&lt;div&gt;- lastKnownLocation: Location&lt;/div&gt;" style="text;strokeColor=none;fillColor=none;align=left;verticalAlign=top;spacingLeft=4;spacingRight=4;overflow=hidden;rotatable=0;points=[[0,0.5],[1,0.5]];portConstraint=eastwest;whiteSpace=wrap;html=1;labelBackgroundColor=default;" vertex="1" parent="599">
                    <mxGeometry y="26" width="280" height="84" as="geometry"/>
                </mxCell>
                <mxCell id="601" value="" style="line;strokeWidth=1;fillColor=none;align=left;verticalAlign=middle;spacingTop=-1;spacingLeft=3;spacingRight=3;rotatable=0;labelPosition=right;points=[];portConstraint=eastwest;strokeColor=inherit;labelBackgroundColor=default;" vertex="1" parent="599">
                    <mxGeometry y="110" width="280" height="8" as="geometry"/>
                </mxCell>
                <mxCell id="602" value="&lt;div&gt;+ ReliefService(inquirer: Inquirer, missingPerson: DisasterVictim,&lt;/div&gt;&lt;div&gt;dateOfInquiry:String, infoProvided: String , lastKnownLocation: Location )&lt;/div&gt;&lt;div&gt;+ getInquirer():Inquirer&lt;/div&gt;&lt;div&gt;+ setInquirer(inquirer: Inquirer)&lt;/div&gt;&lt;div&gt;+ getMissingPerson(): DisasterVictim&lt;/div&gt;&lt;div&gt;+ setMissingPerson(missingPerson: DisasterVictim)&lt;/div&gt;&lt;div&gt;+ getDateOfInquiry(): String&lt;/div&gt;&lt;div&gt;+ setDateOfInquiry(dateOfInquiry: String)&lt;/div&gt;&lt;div&gt;+ getInfoProvided(): String&lt;/div&gt;&lt;div&gt;+ setInfoProvided(infoProvided: String)&lt;/div&gt;&lt;div&gt;+ getLastKnownLocation(): Location&lt;/div&gt;&lt;div&gt;+ setLastKnownLocation(lastKnownLocation: Location)&lt;/div&gt;&lt;div&gt;+ getLogDetails(): String&lt;/div&gt;" style="text;strokeColor=none;fillColor=none;align=left;verticalAlign=top;spacingLeft=4;spacingRight=4;overflow=hidden;rotatable=0;points=[[0,0.5],[1,0.5]];portConstraint=eastwest;whiteSpace=wrap;html=1;labelBackgroundColor=default;" vertex="1" parent="599">
                    <mxGeometry y="118" width="280" height="272" as="geometry"/>
                </mxCell>
                <mxCell id="603" value="" style="endArrow=open;endFill=1;endSize=12;html=1;rounded=0;exitX=-0.005;exitY=0.177;exitDx=0;exitDy=0;exitPerimeter=0;entryX=1;entryY=0.828;entryDx=0;entryDy=0;entryPerimeter=0;labelBackgroundColor=default;" edge="1" parent="1" source="602" target="573">
                    <mxGeometry width="160" relative="1" as="geometry">
                        <mxPoint x="2130" y="1257" as="sourcePoint"/>
                        <mxPoint x="2630.86" y="990.204" as="targetPoint"/>
                        <Array as="points">
                            <mxPoint x="1810" y="1251"/>
                            <mxPoint x="1810" y="950"/>
                        </Array>
                    </mxGeometry>
                </mxCell>
                <mxCell id="604" value="&lt;span style=&quot;&quot;&gt;missing person&lt;/span&gt;" style="text;html=1;align=center;verticalAlign=middle;resizable=0;points=[];autosize=1;strokeColor=none;fillColor=none;labelBackgroundColor=default;" vertex="1" parent="1">
                    <mxGeometry x="1730" y="1120" width="100" height="30" as="geometry"/>
                </mxCell>
                <mxCell id="605" value="Inquirer" style="swimlane;fontStyle=1;align=center;verticalAlign=top;childLayout=stackLayout;horizontal=1;startSize=26;horizontalStack=0;resizeParent=1;resizeParentMax=0;resizeLast=0;collapsible=1;marginBottom=0;whiteSpace=wrap;html=1;labelBackgroundColor=default;" vertex="1" parent="1">
                    <mxGeometry x="1710" y="1587" width="200" height="248" as="geometry"/>
                </mxCell>
                <mxCell id="606" value="&lt;div&gt;&lt;span style=&quot;&quot;&gt;- INFO: String&lt;/span&gt;&lt;br&gt;&lt;/div&gt;&lt;div&gt;- SERVICES_PHONE: String&lt;/div&gt;" style="text;strokeColor=none;fillColor=none;align=left;verticalAlign=top;spacingLeft=4;spacingRight=4;overflow=hidden;rotatable=0;points=[[0,0.5],[1,0.5]];portConstraint=eastwest;whiteSpace=wrap;html=1;labelBackgroundColor=default;" vertex="1" parent="605">
                    <mxGeometry y="26" width="200" height="74" as="geometry"/>
                </mxCell>
                <mxCell id="607" value="" style="line;strokeWidth=1;fillColor=none;align=left;verticalAlign=middle;spacingTop=-1;spacingLeft=3;spacingRight=3;rotatable=0;labelPosition=right;points=[];portConstraint=eastwest;strokeColor=inherit;labelBackgroundColor=default;" vertex="1" parent="605">
                    <mxGeometry y="100" width="200" height="8" as="geometry"/>
                </mxCell>
                <mxCell id="608" value="&lt;div&gt;+ Inquirer(FIRST_NAME: String, LAST_NAME: String,&lt;/div&gt;&lt;div&gt;SERVICES_PHONE:String, INFO:String)&lt;/div&gt;&lt;div&gt;&lt;span style=&quot;&quot;&gt;+ getInfo():String&lt;/span&gt;&lt;br&gt;&lt;/div&gt;&lt;div&gt;+ getServicesPhone():String&lt;/div&gt;" style="text;strokeColor=none;fillColor=none;align=left;verticalAlign=top;spacingLeft=4;spacingRight=4;overflow=hidden;rotatable=0;points=[[0,0.5],[1,0.5]];portConstraint=eastwest;whiteSpace=wrap;html=1;labelBackgroundColor=default;" vertex="1" parent="605">
                    <mxGeometry y="108" width="200" height="140" as="geometry"/>
                </mxCell>
                <mxCell id="609" value="" style="endArrow=open;endFill=1;endSize=12;html=1;rounded=0;exitX=0.35;exitY=0.012;exitDx=0;exitDy=0;exitPerimeter=0;labelBackgroundColor=default;" edge="1" parent="1" source="605">
                    <mxGeometry width="160" relative="1" as="geometry">
                        <mxPoint x="2000" y="1477" as="sourcePoint"/>
                        <mxPoint x="1840" y="1420" as="targetPoint"/>
                        <Array as="points">
                            <mxPoint x="1780" y="1520"/>
                            <mxPoint x="1780" y="1420"/>
                        </Array>
                    </mxGeometry>
                </mxCell>
                <mxCell id="610" value="MedicalRecord" style="swimlane;fontStyle=1;align=center;verticalAlign=top;childLayout=stackLayout;horizontal=1;startSize=26;horizontalStack=0;resizeParent=1;resizeParentMax=0;resizeLast=0;collapsible=1;marginBottom=0;whiteSpace=wrap;html=1;labelBackgroundColor=default;" vertex="1" parent="1">
                    <mxGeometry x="640" y="1310" width="250" height="268" as="geometry"/>
                </mxCell>
                <mxCell id="611" value="&lt;div&gt;- location: Location&lt;/div&gt;&lt;div&gt;- treatmentDetails: String&lt;/div&gt;&lt;div&gt;- dateOfTreatment: String&lt;/div&gt;" style="text;strokeColor=none;fillColor=none;align=left;verticalAlign=top;spacingLeft=4;spacingRight=4;overflow=hidden;rotatable=0;points=[[0,0.5],[1,0.5]];portConstraint=eastwest;whiteSpace=wrap;html=1;labelBackgroundColor=default;" vertex="1" parent="610">
                    <mxGeometry y="26" width="250" height="64" as="geometry"/>
                </mxCell>
                <mxCell id="612" value="" style="line;strokeWidth=1;fillColor=none;align=left;verticalAlign=middle;spacingTop=-1;spacingLeft=3;spacingRight=3;rotatable=0;labelPosition=right;points=[];portConstraint=eastwest;strokeColor=inherit;labelBackgroundColor=default;" vertex="1" parent="610">
                    <mxGeometry y="90" width="250" height="8" as="geometry"/>
                </mxCell>
                <mxCell id="613" value="&lt;div&gt;+ MedicalRecord(location: Location, treatmentDetails:&lt;/div&gt;&lt;div&gt;string, dateOfTreatment: String)&lt;/div&gt;&lt;div&gt;+ getLocation(): Location&lt;/div&gt;&lt;div&gt;+ setLocation(location: Location): void&lt;/div&gt;&lt;div&gt;+ getTreatmentDetails(): String&lt;/div&gt;&lt;div&gt;+ setTreatmentDetails(treatmentDetails: String): void&lt;/div&gt;&lt;div&gt;+ getDateOfTreatment(): String&lt;/div&gt;&lt;div&gt;+ setDateOfTreatment(dateOfTreatment: String): void&lt;/div&gt;" style="text;strokeColor=none;fillColor=none;align=left;verticalAlign=top;spacingLeft=4;spacingRight=4;overflow=hidden;rotatable=0;points=[[0,0.5],[1,0.5]];portConstraint=eastwest;whiteSpace=wrap;html=1;labelBackgroundColor=default;" vertex="1" parent="610">
                    <mxGeometry y="98" width="250" height="170" as="geometry"/>
                </mxCell>
                <mxCell id="614" value="&amp;lt;&amp;lt;use&amp;gt;&amp;gt;" style="endArrow=open;endSize=12;dashed=1;html=1;rounded=0;exitX=-0.009;exitY=0.19;exitDx=0;exitDy=0;exitPerimeter=0;entryX=0.006;entryY=0.678;entryDx=0;entryDy=0;entryPerimeter=0;labelBackgroundColor=default;" edge="1" parent="1" source="611" target="580">
                    <mxGeometry width="160" relative="1" as="geometry">
                        <mxPoint x="688" y="876" as="sourcePoint"/>
                        <mxPoint x="570" y="876" as="targetPoint"/>
                        <Array as="points">
                            <mxPoint x="540" y="1348"/>
                            <mxPoint x="540" y="1024"/>
                        </Array>
                    </mxGeometry>
                </mxCell>
                <mxCell id="615" value="IllegalArgumentException" style="swimlane;fontStyle=1;align=center;verticalAlign=top;childLayout=stackLayout;horizontal=1;startSize=26;horizontalStack=0;resizeParent=1;resizeParentMax=0;resizeLast=0;collapsible=1;marginBottom=0;whiteSpace=wrap;html=1;labelBackgroundColor=default;" vertex="1" parent="1">
                    <mxGeometry x="330" y="1348" width="160" height="120" as="geometry"/>
                </mxCell>
                <mxCell id="616" value="" style="line;strokeWidth=1;fillColor=none;align=left;verticalAlign=middle;spacingTop=-1;spacingLeft=3;spacingRight=3;rotatable=0;labelPosition=right;points=[];portConstraint=eastwest;strokeColor=inherit;labelBackgroundColor=default;" vertex="1" parent="615">
                    <mxGeometry y="26" width="160" height="94" as="geometry"/>
                </mxCell>
                <mxCell id="617" value="" style="endArrow=open;endFill=1;endSize=12;html=1;rounded=0;entryX=0.983;entryY=0.553;entryDx=0;entryDy=0;exitX=-0.013;exitY=0.093;exitDx=0;exitDy=0;exitPerimeter=0;entryPerimeter=0;labelBackgroundColor=default;" edge="1" parent="1" source="613" target="616">
                    <mxGeometry width="160" relative="1" as="geometry">
                        <mxPoint x="900" y="1500" as="sourcePoint"/>
                        <mxPoint x="1060" y="1500" as="targetPoint"/>
                    </mxGeometry>
                </mxCell>
                <mxCell id="618" value="IllegalArgumentException" style="swimlane;fontStyle=1;align=center;verticalAlign=top;childLayout=stackLayout;horizontal=1;startSize=26;horizontalStack=0;resizeParent=1;resizeParentMax=0;resizeLast=0;collapsible=1;marginBottom=0;whiteSpace=wrap;html=1;labelBackgroundColor=default;" vertex="1" parent="1">
                    <mxGeometry x="330" y="1488" width="160" height="120" as="geometry"/>
                </mxCell>
                <mxCell id="619" value="" style="line;strokeWidth=1;fillColor=none;align=left;verticalAlign=middle;spacingTop=-1;spacingLeft=3;spacingRight=3;rotatable=0;labelPosition=right;points=[];portConstraint=eastwest;strokeColor=inherit;labelBackgroundColor=default;" vertex="1" parent="618">
                    <mxGeometry y="26" width="160" height="94" as="geometry"/>
                </mxCell>
                <mxCell id="620" value="" style="endArrow=open;endFill=1;endSize=12;html=1;rounded=0;entryX=1;entryY=0.5;entryDx=0;entryDy=0;exitX=-0.005;exitY=0.853;exitDx=0;exitDy=0;exitPerimeter=0;labelBackgroundColor=default;" edge="1" parent="1" source="613" target="618">
                    <mxGeometry width="160" relative="1" as="geometry">
                        <mxPoint x="647" y="1434" as="sourcePoint"/>
                        <mxPoint x="497" y="1436" as="targetPoint"/>
                    </mxGeometry>
                </mxCell>
                <mxCell id="621" value="&amp;lt;&amp;lt;throws&amp;gt;&amp;gt;" style="text;html=1;align=center;verticalAlign=middle;resizable=0;points=[];autosize=1;strokeColor=none;fillColor=none;labelBackgroundColor=default;" vertex="1" parent="1">
                    <mxGeometry x="510" y="1548" width="90" height="30" as="geometry"/>
                </mxCell>
                <mxCell id="622" value="&amp;lt;&amp;lt;throws&amp;gt;&amp;gt;" style="text;html=1;align=center;verticalAlign=middle;resizable=0;points=[];autosize=1;strokeColor=none;fillColor=none;labelBackgroundColor=default;" vertex="1" parent="1">
                    <mxGeometry x="510" y="1420" width="90" height="30" as="geometry"/>
                </mxCell>
                <mxCell id="623" value="IllegalArgumentException" style="swimlane;fontStyle=1;align=center;verticalAlign=top;childLayout=stackLayout;horizontal=1;startSize=26;horizontalStack=0;resizeParent=1;resizeParentMax=0;resizeLast=0;collapsible=1;marginBottom=0;whiteSpace=wrap;html=1;labelBackgroundColor=default;" vertex="1" parent="1">
                    <mxGeometry x="2240" y="1310" width="160" height="120" as="geometry"/>
                </mxCell>
                <mxCell id="624" value="" style="line;strokeWidth=1;fillColor=none;align=left;verticalAlign=middle;spacingTop=-1;spacingLeft=3;spacingRight=3;rotatable=0;labelPosition=right;points=[];portConstraint=eastwest;strokeColor=inherit;labelBackgroundColor=default;" vertex="1" parent="623">
                    <mxGeometry y="26" width="160" height="94" as="geometry"/>
                </mxCell>
                <mxCell id="625" value="" style="endArrow=open;endFill=1;endSize=12;html=1;rounded=0;exitX=0.002;exitY=0.137;exitDx=0;exitDy=0;exitPerimeter=0;labelBackgroundColor=default;" edge="1" parent="1" source="626">
                    <mxGeometry width="160" relative="1" as="geometry">
                        <mxPoint x="2249" y="1260" as="sourcePoint"/>
                        <mxPoint x="2240" y="1359" as="targetPoint"/>
                    </mxGeometry>
                </mxCell>
                <mxCell id="626" value="&amp;lt;&amp;lt;throws&amp;gt;&amp;gt;" style="text;html=1;align=center;verticalAlign=middle;resizable=0;points=[];autosize=1;strokeColor=none;fillColor=none;labelBackgroundColor=default;" vertex="1" parent="1">
                    <mxGeometry x="2120" y="1355" width="90" height="30" as="geometry"/>
                </mxCell>
                <mxCell id="627" value="IllegalArgumentException" style="swimlane;fontStyle=1;align=center;verticalAlign=top;childLayout=stackLayout;horizontal=1;startSize=26;horizontalStack=0;resizeParent=1;resizeParentMax=0;resizeLast=0;collapsible=1;marginBottom=0;whiteSpace=wrap;html=1;labelBackgroundColor=default;" vertex="1" parent="1">
                    <mxGeometry x="1570" y="1228" width="160" height="120" as="geometry"/>
                </mxCell>
                <mxCell id="628" value="" style="line;strokeWidth=1;fillColor=none;align=left;verticalAlign=middle;spacingTop=-1;spacingLeft=3;spacingRight=3;rotatable=0;labelPosition=right;points=[];portConstraint=eastwest;strokeColor=inherit;labelBackgroundColor=default;" vertex="1" parent="627">
                    <mxGeometry y="26" width="160" height="94" as="geometry"/>
                </mxCell>
                <mxCell id="629" value="" style="endArrow=open;endFill=1;endSize=12;html=1;rounded=0;exitX=1.006;exitY=0.433;exitDx=0;exitDy=0;entryX=0.5;entryY=0;entryDx=0;entryDy=0;exitPerimeter=0;labelBackgroundColor=default;" edge="1" parent="1" source="575" target="627">
                    <mxGeometry width="160" relative="1" as="geometry">
                        <mxPoint x="1689" y="995" as="sourcePoint"/>
                        <mxPoint x="1680" y="1094" as="targetPoint"/>
                        <Array as="points">
                            <mxPoint x="1650" y="1174"/>
                        </Array>
                    </mxGeometry>
                </mxCell>
                <mxCell id="630" value="&amp;lt;&amp;lt;throws&amp;gt;&amp;gt;" style="text;html=1;align=center;verticalAlign=middle;resizable=0;points=[];autosize=1;strokeColor=none;fillColor=none;labelBackgroundColor=default;" vertex="1" parent="1">
                    <mxGeometry x="1520" y="1170" width="90" height="30" as="geometry"/>
                </mxCell>
                <mxCell id="631" value="" style="endArrow=open;endFill=1;endSize=12;html=1;rounded=0;exitX=1;exitY=0.014;exitDx=0;exitDy=0;entryX=0.75;entryY=0;entryDx=0;entryDy=0;exitPerimeter=0;labelBackgroundColor=default;" edge="1" parent="1" source="575" target="627">
                    <mxGeometry width="160" relative="1" as="geometry">
                        <mxPoint x="1520" y="994" as="sourcePoint"/>
                        <mxPoint x="1660" y="1048" as="targetPoint"/>
                        <Array as="points">
                            <mxPoint x="1690" y="994"/>
                        </Array>
                    </mxGeometry>
                </mxCell>
                <mxCell id="632" value="&amp;lt;&amp;lt;throws&amp;gt;&amp;gt;" style="text;html=1;align=center;verticalAlign=middle;resizable=0;points=[];autosize=1;strokeColor=none;fillColor=none;labelBackgroundColor=default;" vertex="1" parent="1">
                    <mxGeometry x="1530" y="990" width="90" height="30" as="geometry"/>
                </mxCell>
                <mxCell id="633" value="" style="endArrow=diamondThin;endFill=0;endSize=24;html=1;rounded=0;entryX=0.003;entryY=0.427;entryDx=0;entryDy=0;exitX=0.5;exitY=0;exitDx=0;exitDy=0;entryPerimeter=0;labelBackgroundColor=default;" edge="1" parent="1" source="610" target="575">
                    <mxGeometry width="160" relative="1" as="geometry">
                        <mxPoint x="990" y="1190" as="sourcePoint"/>
                        <mxPoint x="1150" y="1190" as="targetPoint"/>
                        <Array as="points">
                            <mxPoint x="765" y="1174"/>
                        </Array>
                    </mxGeometry>
                </mxCell>
                <mxCell id="634" value="0..*" style="text;html=1;align=center;verticalAlign=middle;resizable=0;points=[];autosize=1;strokeColor=none;fillColor=none;labelBackgroundColor=default;" vertex="1" parent="1">
                    <mxGeometry x="760" y="1278" width="40" height="30" as="geometry"/>
                </mxCell>
                <mxCell id="635" value="1" style="text;html=1;align=center;verticalAlign=middle;resizable=0;points=[];autosize=1;strokeColor=none;fillColor=none;labelBackgroundColor=default;" vertex="1" parent="1">
                    <mxGeometry x="1030" y="1140" width="30" height="30" as="geometry"/>
                </mxCell>
                <mxCell id="636" value="" style="endArrow=diamondThin;endFill=1;endSize=24;html=1;rounded=0;entryX=0.75;entryY=0;entryDx=0;entryDy=0;exitX=0.5;exitY=0;exitDx=0;exitDy=0;labelBackgroundColor=default;" edge="1" parent="1" source="594" target="572">
                    <mxGeometry width="160" relative="1" as="geometry">
                        <mxPoint x="850" y="1180" as="sourcePoint"/>
                        <mxPoint x="1010" y="1180" as="targetPoint"/>
                        <Array as="points">
                            <mxPoint x="460" y="610"/>
                            <mxPoint x="1403" y="610"/>
                        </Array>
                    </mxGeometry>
                </mxCell>
                <mxCell id="637" value="*" style="text;html=1;align=center;verticalAlign=middle;resizable=0;points=[];autosize=1;strokeColor=none;fillColor=none;labelBackgroundColor=default;" vertex="1" parent="1">
                    <mxGeometry x="455" y="738" width="30" height="30" as="geometry"/>
                </mxCell>
                <mxCell id="638" value="1" style="text;html=1;align=center;verticalAlign=middle;resizable=0;points=[];autosize=1;strokeColor=none;fillColor=none;labelBackgroundColor=default;" vertex="1" parent="1">
                    <mxGeometry x="1405" y="740" width="30" height="30" as="geometry"/>
                </mxCell>
                <mxCell id="639" value="&lt;p style=&quot;margin:0px;margin-top:4px;text-align:center;&quot;&gt;&lt;i&gt;&amp;lt;&amp;lt;&lt;/i&gt;&lt;span style=&quot;font-family: sans-serif; text-align: start; white-space: pre;&quot;&gt;enumerations&lt;/span&gt;&lt;i&gt;&amp;gt;&amp;gt;&lt;/i&gt;&lt;br&gt;Dietary restrictions&lt;br&gt;&lt;/p&gt;&lt;hr size=&quot;1&quot; style=&quot;border-style:solid;&quot;&gt;&lt;p style=&quot;margin:0px;margin-left:4px;&quot;&gt;AVML - Asian vegetarian meal&lt;br&gt;DBML - Diabetic meal&lt;br&gt;GFML - Gluten intolerant meal&lt;br&gt;KSML - Kosher meal&lt;br&gt;LSML - Low salt meal&lt;br&gt;MOML - Muslim meal&lt;br&gt;PFML - Peanut-free meal&lt;br&gt;VGML - Vegan meal&lt;br&gt;VJML - Vegetarian Jain meal&lt;br&gt;&lt;/p&gt;&lt;p style=&quot;margin:0px;margin-left:4px;&quot;&gt;&lt;br&gt;&lt;/p&gt;" style="verticalAlign=top;align=left;overflow=fill;html=1;whiteSpace=wrap;labelBackgroundColor=default;" vertex="1" parent="1">
                    <mxGeometry x="280" y="1065" width="190" height="215" as="geometry"/>
                </mxCell>
                <mxCell id="640" value="" style="endArrow=none;startArrow=circlePlus;endFill=0;startFill=0;endSize=8;html=1;rounded=0;entryX=1;entryY=0.25;entryDx=0;entryDy=0;exitX=0.004;exitY=0.301;exitDx=0;exitDy=0;exitPerimeter=0;labelBackgroundColor=default;" edge="1" parent="1" source="575" target="639">
                    <mxGeometry width="160" relative="1" as="geometry">
                        <mxPoint x="469.99999999999966" y="1229.7300000000002" as="sourcePoint"/>
                        <mxPoint x="1080.76" y="1227.9959999999999" as="targetPoint"/>
                    </mxGeometry>
                </mxCell>
                <mxCell id="641" value="&lt;div&gt;&amp;lt;&amp;lt;interface&amp;gt;&amp;gt;&lt;/div&gt;ReliefServiceInterface" style="swimlane;fontStyle=1;align=center;verticalAlign=top;childLayout=stackLayout;horizontal=1;startSize=40;horizontalStack=0;resizeParent=1;resizeParentMax=0;resizeLast=0;collapsible=1;marginBottom=0;whiteSpace=wrap;html=1;labelBackgroundColor=default;" vertex="1" parent="1">
                    <mxGeometry x="1830" y="850" width="340" height="100" as="geometry"/>
                </mxCell>
                <mxCell id="642" value="+ loginquirer (inquirerInfo : Inquirerinfo: void)&lt;div&gt;+ searchDisasterVictimName: String(): List &amp;lt;DisasterVictim&amp;gt;&lt;/div&gt;&lt;div&gt;+ setMode(mode: String(): void&lt;/div&gt;" style="text;strokeColor=none;fillColor=none;align=left;verticalAlign=top;spacingLeft=4;spacingRight=4;overflow=hidden;rotatable=0;points=[[0,0.5],[1,0.5]];portConstraint=eastwest;whiteSpace=wrap;html=1;labelBackgroundColor=default;" vertex="1" parent="641">
                    <mxGeometry y="40" width="340" height="60" as="geometry"/>
                </mxCell>
                <mxCell id="643" value="" style="endArrow=block;endFill=0;endSize=12;html=1;rounded=0;labelBackgroundColor=default;" edge="1" parent="1" source="599">
                    <mxGeometry width="160" relative="1" as="geometry">
                        <mxPoint x="1975" y="1075" as="sourcePoint"/>
                        <mxPoint x="1985" y="950" as="targetPoint"/>
                    </mxGeometry>
                </mxCell>
                <mxCell id="644" value="0..*" style="text;html=1;align=center;verticalAlign=middle;resizable=0;points=[];autosize=1;strokeColor=none;fillColor=none;labelBackgroundColor=default;" vertex="1" parent="1">
                    <mxGeometry x="1740" y="1557" width="40" height="30" as="geometry"/>
                </mxCell>
                <mxCell id="645" value="1" style="text;html=1;align=center;verticalAlign=middle;resizable=0;points=[];autosize=1;strokeColor=none;fillColor=none;labelBackgroundColor=default;" vertex="1" parent="1">
                    <mxGeometry x="1780" y="1388" width="30" height="30" as="geometry"/>
                </mxCell>
                <mxCell id="646" value="&amp;lt;&amp;lt;inquire&amp;gt;&amp;gt;" style="text;html=1;align=center;verticalAlign=middle;resizable=0;points=[];autosize=1;strokeColor=none;fillColor=none;labelBackgroundColor=default;" vertex="1" parent="1">
                    <mxGeometry x="1700" y="1430" width="90" height="30" as="geometry"/>
                </mxCell>
                <mxCell id="647" value="" style="endArrow=block;endFill=0;endSize=12;html=1;rounded=0;entryX=1.001;entryY=-0.025;entryDx=0;entryDy=0;entryPerimeter=0;exitX=-0.017;exitY=-0.025;exitDx=0;exitDy=0;exitPerimeter=0;labelBackgroundColor=default;" edge="1" parent="1" source="651" target="608">
                    <mxGeometry width="160" relative="1" as="geometry">
                        <mxPoint x="2050" y="1690" as="sourcePoint"/>
                        <mxPoint x="2000.5" y="1680" as="targetPoint"/>
                    </mxGeometry>
                </mxCell>
                <mxCell id="648" value="InquirerPerson" style="swimlane;fontStyle=1;align=center;verticalAlign=top;childLayout=stackLayout;horizontal=1;startSize=26;horizontalStack=0;resizeParent=1;resizeParentMax=0;resizeLast=0;collapsible=1;marginBottom=0;whiteSpace=wrap;html=1;labelBackgroundColor=default;" vertex="1" parent="1">
                    <mxGeometry x="2050" y="1587" width="290" height="248" as="geometry"/>
                </mxCell>
                <mxCell id="649" value="&lt;div&gt;- FIRST_NAME: String&lt;/div&gt;&lt;div&gt;- LAST_NAME: String&lt;/div&gt;&lt;div&gt;- interactions: ArrayList&amp;lt;String&amp;gt;&lt;/div&gt;" style="text;strokeColor=none;fillColor=none;align=left;verticalAlign=top;spacingLeft=4;spacingRight=4;overflow=hidden;rotatable=0;points=[[0,0.5],[1,0.5]];portConstraint=eastwest;whiteSpace=wrap;html=1;labelBackgroundColor=default;" vertex="1" parent="648">
                    <mxGeometry y="26" width="290" height="74" as="geometry"/>
                </mxCell>
                <mxCell id="650" value="" style="line;strokeWidth=1;fillColor=none;align=left;verticalAlign=middle;spacingTop=-1;spacingLeft=3;spacingRight=3;rotatable=0;labelPosition=right;points=[];portConstraint=eastwest;strokeColor=inherit;labelBackgroundColor=default;" vertex="1" parent="648">
                    <mxGeometry y="100" width="290" height="8" as="geometry"/>
                </mxCell>
                <mxCell id="651" value="&lt;div&gt;&lt;span style=&quot;&quot;&gt;+ inquirer person(firstName: String, lastName: String)&lt;/span&gt;&lt;br&gt;&lt;/div&gt;&lt;div&gt;&lt;div&gt;+ getFirstName(): String&lt;/div&gt;&lt;div&gt;+ getLastName(): String&lt;/div&gt;&lt;/div&gt;&lt;div&gt;&lt;div&gt;+ addInteraction(ineraction: String) : void&lt;/div&gt;&lt;div&gt;+ clearInteraction(): void&lt;/div&gt;&lt;/div&gt;" style="text;strokeColor=none;fillColor=none;align=left;verticalAlign=top;spacingLeft=4;spacingRight=4;overflow=hidden;rotatable=0;points=[[0,0.5],[1,0.5]];portConstraint=eastwest;whiteSpace=wrap;html=1;labelBackgroundColor=default;" vertex="1" parent="648">
                    <mxGeometry y="108" width="290" height="140" as="geometry"/>
                </mxCell>
                <mxCell id="652" value="&lt;div&gt;&amp;lt;&amp;lt;interface&amp;gt;&amp;gt;&lt;/div&gt;DisasterVictimEntryInterface" style="swimlane;fontStyle=1;align=center;verticalAlign=top;childLayout=stackLayout;horizontal=1;startSize=40;horizontalStack=0;resizeParent=1;resizeParentMax=0;resizeLast=0;collapsible=1;marginBottom=0;whiteSpace=wrap;html=1;labelBackgroundColor=default;" vertex="1" parent="1">
                    <mxGeometry x="1575" y="620" width="340" height="100" as="geometry"/>
                </mxCell>
                <mxCell id="653" value="+ enterDisasterVictimInformation(): void&lt;div&gt;+ enterRelationshipInformation(): void&lt;/div&gt;&lt;div&gt;+ enterMedicalRecordInformation(): void&lt;/div&gt;" style="text;strokeColor=none;fillColor=none;align=left;verticalAlign=top;spacingLeft=4;spacingRight=4;overflow=hidden;rotatable=0;points=[[0,0.5],[1,0.5]];portConstraint=eastwest;whiteSpace=wrap;html=1;labelBackgroundColor=default;" vertex="1" parent="652">
                    <mxGeometry y="40" width="340" height="60" as="geometry"/>
                </mxCell>
                <mxCell id="654" value="" style="endArrow=block;endFill=0;endSize=12;html=1;rounded=0;exitX=1.005;exitY=0.287;exitDx=0;exitDy=0;exitPerimeter=0;entryX=0.48;entryY=1.04;entryDx=0;entryDy=0;entryPerimeter=0;labelBackgroundColor=default;" edge="1" parent="1" source="573" target="653">
                    <mxGeometry width="160" relative="1" as="geometry">
                        <mxPoint x="1733" y="855" as="sourcePoint"/>
                        <mxPoint x="1735" y="720" as="targetPoint"/>
                        <Array as="points">
                            <mxPoint x="1740" y="843"/>
                        </Array>
                    </mxGeometry>
                </mxCell>
                <mxCell id="655" value="&amp;lt;&amp;lt;use&amp;gt;&amp;gt;" style="endArrow=open;endSize=12;dashed=1;html=1;rounded=0;exitX=0.961;exitY=1;exitDx=0;exitDy=0;entryX=0.196;entryY=-0.002;entryDx=0;entryDy=0;exitPerimeter=0;entryPerimeter=0;labelBackgroundColor=default;" edge="1" parent="1" source="580" target="656">
                    <mxGeometry width="160" relative="1" as="geometry">
                        <mxPoint x="974.5" y="1697" as="sourcePoint"/>
                        <mxPoint x="974.5" y="1447" as="targetPoint"/>
                    </mxGeometry>
                </mxCell>
                <mxCell id="656" value="&amp;lt;&amp;lt;Database&amp;gt;&amp;gt;&lt;div&gt;project.sql&lt;/div&gt;" style="html=1;whiteSpace=wrap;labelBackgroundColor=default;" vertex="1" parent="1">
                    <mxGeometry x="910" y="1800" width="110" height="50" as="geometry"/>
                </mxCell>
                <mxCell id="657" value="&amp;lt;&amp;lt;use&amp;gt;&amp;gt;" style="endArrow=open;endSize=12;dashed=1;html=1;rounded=0;exitX=-0.006;exitY=0.647;exitDx=0;exitDy=0;entryX=1;entryY=0.25;entryDx=0;entryDy=0;exitPerimeter=0;labelBackgroundColor=default;" edge="1" parent="1" source="602" target="656">
                    <mxGeometry width="160" relative="1" as="geometry">
                        <mxPoint x="1649" y="1217" as="sourcePoint"/>
                        <mxPoint x="1651" y="1927" as="targetPoint"/>
                        <Array as="points">
                            <mxPoint x="1530" y="1380"/>
                            <mxPoint x="1530" y="1810"/>
                        </Array>
                    </mxGeometry>
                </mxCell>
                <mxCell id="658" value="&amp;lt;&amp;lt;use&amp;gt;&amp;gt;" style="endArrow=open;endSize=12;dashed=1;html=1;rounded=0;entryX=1;entryY=0.75;entryDx=0;entryDy=0;exitX=0.001;exitY=1.023;exitDx=0;exitDy=0;exitPerimeter=0;labelBackgroundColor=default;" edge="1" parent="1" source="608" target="656">
                    <mxGeometry width="160" relative="1" as="geometry">
                        <mxPoint x="1848" y="1389" as="sourcePoint"/>
                        <mxPoint x="1030" y="1848" as="targetPoint"/>
                        <Array as="points">
                            <mxPoint x="1630" y="1838"/>
                            <mxPoint x="1280" y="1838"/>
                        </Array>
                    </mxGeometry>
                </mxCell>
                <mxCell id="659" value="&amp;lt;&amp;lt;File&amp;gt;&amp;gt;&lt;div&gt;GenderOptions&lt;span style=&quot;&quot;&gt;.sql&lt;/span&gt;&lt;/div&gt;" style="html=1;whiteSpace=wrap;labelBackgroundColor=default;" vertex="1" parent="1">
                    <mxGeometry x="1435" y="570" width="110" height="50" as="geometry"/>
                </mxCell>
                <mxCell id="660" value="&amp;lt;&amp;lt;use&amp;gt;&amp;gt;" style="endArrow=open;endSize=12;dashed=1;html=1;rounded=0;exitX=0.89;exitY=0.001;exitDx=0;exitDy=0;exitPerimeter=0;entryX=0.25;entryY=1;entryDx=0;entryDy=0;labelBackgroundColor=default;" edge="1" parent="1" source="572" target="659">
                    <mxGeometry width="160" relative="1" as="geometry">
                        <mxPoint x="1560" y="720" as="sourcePoint"/>
                        <mxPoint x="1442" y="720" as="targetPoint"/>
                    </mxGeometry>
                </mxCell>
                <mxCell id="661" value="&lt;span style=&quot;font-weight: normal;&quot;&gt;0..9&lt;/span&gt;" style="text;align=center;fontStyle=1;verticalAlign=middle;spacingLeft=3;spacingRight=3;strokeColor=none;rotatable=0;points=[[0,0.5],[1,0.5]];portConstraint=eastwest;html=1;labelBackgroundColor=default;" vertex="1" parent="1">
                    <mxGeometry x="455" y="1094" width="80" height="26" as="geometry"/>
                </mxCell>
                <mxCell id="662" value="&lt;span style=&quot;font-weight: normal;&quot;&gt;1&lt;/span&gt;" style="text;align=center;fontStyle=1;verticalAlign=middle;spacingLeft=3;spacingRight=3;strokeColor=none;rotatable=0;points=[[0,0.5],[1,0.5]];portConstraint=eastwest;html=1;labelBackgroundColor=default;" vertex="1" parent="1">
                    <mxGeometry x="1005" y="1094" width="80" height="26" as="geometry"/>
                </mxCell>
            </root>
        </mxGraphModel>
    </diagram>
</mxfile>